# xmcd CD database file
#
# Track frame offsets:
#	150
#	16480
#	29752
#	40898
#	62803
#	82175
#	103323
#	119249
#	134257
#	154177
#	179511
#	191697
#	215441
#	225987
#	246592
#
# Disc length: 3475 seconds
#
# Revision: 0
# Processed by: cddbd v1.5.2PL0 Copyright (c) Steve Scherf et al.
# Submitted via: CDex 1.51
#
DISCID=e50d910f
DTITLE=John Intrator and Sébastien Felix - Open House
DYEAR=2014
DGENRE=Jazz
TTITLE0=Exactly Like You
TTITLE1=If I Had You
TTITLE2=Tickle Toe
TTITLE3=Watch What Happens
TTITLE4=Here Comes That Rainy Day
TTITLE5=Swing 39
TTITLE6=As Time Goes By
TTITLE7=Souvenirs and Black and White
TTITLE8=I'm Confessin'
TTITLE9=Along Came Betty
TTITLE10=Oriental Shuffle
TTITLE11=Tenderly
TTITLE12=You'd Be So Nice
TTITLE13=These Foolish Things
TTITLE14=Nature Boy
EXTD=YEAR: 2014
EXTT0=
EXTT1=
EXTT2=
EXTT3=
EXTT4=
EXTT5=
EXTT6=
EXTT7=
EXTT8=
EXTT9=
EXTT10=
EXTT11=
EXTT12=
EXTT13=
EXTT14=
PLAYORDER=
